# xmcd CD database file
# Copyright (C) 1997 Ti Kan
# 
# Track frame offsets:
#     150
#     26775
#     41297
#     61730
#     64792
#     85095
#     99077
#     107935
#     127352
#     145235
#     163682
#     181157
#     193400
#     204780
#     210197
#     230547
# 
# Disc length: 3380 seconds
# 
# Revision: 1
# Processed by: cddbd v1.4b41PL1 Copyright (c) Steve Scherf et al.
# Submitted via: DiscPlay 4.0.4
# 
DISCID=d90d3210
DTITLE=Geoff Achison and Band - Genevieve
DYEAR=1900
DGENRE=
TTITLE0=Starting Line
TTITLE1=Straight into Your heart
TTITLE2=Someone's Dream
TTITLE3=The Sea of Storms
TTITLE4=Stepping Stones
TTITLE5=Genevieve
TTITLE6=Desiderata
TTITLE7=Space In Time
TTITLE8=Fine Politician
TTITLE9=Soul Digger
TTITLE10=Time Keeps Changing
TTITLE11=The Sea Of Rains
TTITLE12=On the Shor of Better Days
TTITLE13=It's Nearly Over
TTITLE14=It's Over
TTITLE15=Bullets and Flowers
EXTD=
EXTT0=
EXTT1=
EXTT2=
EXTT3=
EXTT4=
EXTT5=
EXTT6=
EXTT7=
EXTT8=
EXTT9=
EXTT10=
EXTT11=
EXTT12=
EXTT13=
EXTT14=
EXTT15=
PLAYORDER=
